<svg width="400" height="300" viewBox="0 0 400 300" xmlns="http://www.w3.org/2000/svg">
  <!-- Background -->
  <rect width="400" height="300" fill="#f1f5f9"/>
  
  <!-- Main elements -->
  <rect x="50" y="50" width="300" height="200" rx="15" fill="#ffffff" stroke="#e2e8f0" stroke-width="2"/>
  
  <!-- Team illustration -->
  <circle cx="120" cy="120" r="25" fill="#3b82f6" opacity="0.8"/>
  <rect x="105" y="145" width="30" height="40" rx="5" fill="#64748b" opacity="0.6"/>
  
  <circle cx="200" cy="110" r="25" fill="#10b981" opacity="0.8"/>
  <rect x="185" y="135" width="30" height="50" rx="5" fill="#64748b" opacity="0.6"/>
  
  <circle cx="280" cy="125" r="25" fill="#f59e0b" opacity="0.8"/>
  <rect x="265" y="150" width="30" height="35" rx="5" fill="#64748b" opacity="0.6"/>
  
  <!-- Connection lines -->
  <line x1="145" y1="120" x2="175" y2="110" stroke="#3b82f6" stroke-width="2" opacity="0.4"/>
  <line x1="225" y1="110" x2="255" y2="125" stroke="#3b82f6" stroke-width="2" opacity="0.4"/>
  
  <!-- Chart/Graph element -->
  <rect x="80" y="200" width="240" height="30" rx="5" fill="#f8fafc" stroke="#e2e8f0"/>
  <rect x="85" y="205" width="60" height="20" rx="3" fill="#3b82f6" opacity="0.7"/>
  <rect x="150" y="205" width="100" height="20" rx="3" fill="#10b981" opacity="0.7"/>
  <rect x="255" y="205" width="40" height="20" rx="3" fill="#f59e0b" opacity="0.7"/>
  
  <!-- Decorative dots -->
  <circle cx="30" cy="30" r="4" fill="#3b82f6" opacity="0.3"/>
  <circle cx="370" cy="40" r="3" fill="#10b981" opacity="0.3"/>
  <circle cx="20" cy="270" r="5" fill="#f59e0b" opacity="0.3"/>
  <circle cx="380" cy="260" r="3" fill="#ef4444" opacity="0.3"/>
  
  <!-- Abstract background pattern -->
  <path d="M0 50 Q 50 30 100 50 T 200 50" stroke="#3b82f6" stroke-width="1" fill="none" opacity="0.2"/>
  <path d="M200 250 Q 250 230 300 250 T 400 250" stroke="#10b981" stroke-width="1" fill="none" opacity="0.2"/>
</svg> 