<svg width="500" height="400" viewBox="0 0 500 400" xmlns="http://www.w3.org/2000/svg">
  <!-- Background -->
  <rect width="500" height="400" fill="#f8fafc"/>
  
  <!-- Main shape -->
  <circle cx="250" cy="200" r="120" fill="#3b82f6" opacity="0.1"/>
  <circle cx="250" cy="200" r="80" fill="#3b82f6" opacity="0.2"/>
  <circle cx="250" cy="200" r="40" fill="#3b82f6" opacity="0.3"/>
  
  <!-- Decorative elements -->
  <rect x="150" y="120" width="200" height="160" rx="20" fill="#ffffff" stroke="#e2e8f0" stroke-width="2"/>
  
  <!-- Screen content -->
  <rect x="170" y="140" width="160" height="4" rx="2" fill="#e2e8f0"/>
  <rect x="170" y="160" width="120" height="4" rx="2" fill="#e2e8f0"/>
  <rect x="170" y="180" width="140" height="4" rx="2" fill="#e2e8f0"/>
  
  <!-- Button -->
  <rect x="170" y="220" width="60" height="24" rx="12" fill="#3b82f6"/>
  <text x="200" y="235" text-anchor="middle" fill="white" font-size="10" font-family="Arial, sans-serif">Start</text>
  
  <!-- Floating elements -->
  <circle cx="100" cy="100" r="8" fill="#06b6d4" opacity="0.6"/>
  <circle cx="400" cy="120" r="6" fill="#10b981" opacity="0.6"/>
  <circle cx="80" cy="300" r="10" fill="#f59e0b" opacity="0.6"/>
  <circle cx="420" cy="300" r="7" fill="#ef4444" opacity="0.6"/>
  
  <!-- Abstract shapes -->
  <path d="M50 50 Q 100 20 150 50 T 250 50" stroke="#3b82f6" stroke-width="2" fill="none" opacity="0.4"/>
  <path d="M350 350 Q 400 320 450 350 T 500 350" stroke="#06b6d4" stroke-width="2" fill="none" opacity="0.4"/>
</svg> 